<svg width="692" height="436" viewBox="0 0 692 436" fill="none" xmlns="http://www.w3.org/2000/svg">
<g filter="url(#filter0_d_39_357)">
<rect x="38" y="13" width="616" height="360" rx="24" fill="white"/>
<rect x="38.5" y="13.5" width="615" height="359" rx="23.5" stroke="#E2E8F0"/>
<rect x="71" y="46" width="12" height="12" rx="6" fill="#F87171"/>
<rect x="95" y="46" width="12" height="12" rx="6" fill="#FACC15"/>
<rect x="119" y="46" width="12" height="12" rx="6" fill="#4ADE80"/>
<rect x="71.5" y="82.5" width="549" height="109" rx="11.5" fill="url(#paint0_linear_39_357)"/>
<rect x="71.5" y="82.5" width="549" height="109" rx="11.5" stroke="#E0E7FF"/>
<path d="M89.17 115V103.359H91.2562V113.243H96.3994V115H89.17ZM100.566 115.181C100.012 115.181 99.5138 115.081 99.0708 114.881C98.6278 114.681 98.2781 114.385 98.0219 113.993C97.7656 113.602 97.6375 113.119 97.6375 112.544C97.6375 112.051 97.7299 111.644 97.9147 111.322C98.0995 111 98.3502 110.743 98.6669 110.55C98.9835 110.357 99.3401 110.212 99.7364 110.113C100.133 110.014 100.543 109.942 100.966 109.898C101.475 109.841 101.888 109.792 102.204 109.75C102.52 109.708 102.753 109.64 102.902 109.547C103.052 109.453 103.126 109.309 103.126 109.112V109.071C103.126 108.783 103.068 108.539 102.953 108.34C102.837 108.141 102.666 107.988 102.44 107.882C102.214 107.776 101.935 107.722 101.602 107.722C101.264 107.722 100.971 107.774 100.723 107.878C100.475 107.982 100.272 108.117 100.115 108.284C99.9587 108.45 99.8437 108.63 99.7706 108.824L97.8875 108.437C98.0608 107.921 98.3273 107.495 98.6869 107.159C99.0465 106.823 99.4756 106.572 99.9742 106.406C100.473 106.239 101.013 106.156 101.594 106.156C102.004 106.156 102.418 106.205 102.837 106.302C103.257 106.4 103.641 106.562 103.991 106.789C104.341 107.016 104.623 107.323 104.837 107.71C105.05 108.096 105.157 108.58 105.157 109.161V115H103.214V113.796H103.132C103.005 114.044 102.827 114.273 102.598 114.484C102.369 114.694 102.086 114.863 101.75 114.99C101.414 115.117 101.02 115.181 100.566 115.181ZM101.087 113.671C101.506 113.671 101.869 113.588 102.175 113.423C102.481 113.257 102.718 113.037 102.886 112.762C103.054 112.487 103.138 112.189 103.138 111.866V110.832C103.071 110.887 102.959 110.937 102.802 110.984C102.645 111.03 102.468 111.071 102.271 111.107C102.074 111.143 101.882 111.174 101.693 111.2C101.504 111.226 101.344 111.247 101.212 111.265C100.908 111.305 100.633 111.373 100.39 111.469C100.146 111.565 99.9546 111.697 99.815 111.866C99.6754 112.035 99.6056 112.254 99.6056 112.521C99.6056 112.773 99.6697 112.984 99.7978 113.154C99.9259 113.324 100.101 113.453 100.323 113.54C100.545 113.628 100.8 113.671 101.087 113.671ZM110.303 115.109C109.705 115.109 109.181 114.981 108.731 114.725C108.281 114.469 107.932 114.095 107.684 113.603C107.435 113.112 107.311 112.517 107.311 111.818V106.266H109.342V111.507C109.342 112.093 109.495 112.552 109.8 112.884C110.105 113.216 110.524 113.383 111.057 113.383C111.417 113.383 111.737 113.304 112.016 113.147C112.295 112.99 112.515 112.762 112.676 112.462C112.837 112.162 112.918 111.802 112.918 111.382V106.266H114.953V115H113.023L113 112.841H113.154C112.909 113.602 112.548 114.171 112.069 114.546C111.591 114.922 111.002 115.109 110.303 115.109ZM119.139 109.884V115H117.108V106.266H119.033L119.061 108.425H118.902C119.143 107.67 119.502 107.103 119.977 106.725C120.452 106.346 121.046 106.156 121.758 106.156C122.358 106.156 122.881 106.284 123.329 106.541C123.776 106.797 124.124 107.17 124.372 107.66C124.621 108.149 124.745 108.745 124.745 109.448V115H122.714V109.759C122.714 109.173 122.563 108.714 122.259 108.382C121.955 108.049 121.537 107.883 121.004 107.883C120.646 107.883 120.326 107.962 120.044 108.119C119.762 108.276 119.541 108.503 119.38 108.8C119.219 109.098 119.139 109.459 119.139 109.884ZM130.685 115.176C129.837 115.176 129.101 114.988 128.477 114.612C127.852 114.236 127.369 113.71 127.027 113.034C126.686 112.358 126.515 111.572 126.515 110.676C126.515 109.77 126.686 108.979 127.027 108.301C127.369 107.623 127.852 107.096 128.477 106.72C129.101 106.344 129.837 106.156 130.685 106.156C131.173 106.156 131.625 106.219 132.041 106.346C132.457 106.472 132.83 106.653 133.158 106.889C133.487 107.124 133.761 107.412 133.982 107.75C134.202 108.089 134.36 108.471 134.455 108.897L132.552 109.296C132.499 109.07 132.418 108.866 132.31 108.683C132.201 108.5 132.069 108.343 131.913 108.212C131.757 108.08 131.578 107.98 131.375 107.91C131.172 107.84 130.947 107.805 130.702 107.805C130.229 107.805 129.837 107.931 129.523 108.182C129.21 108.433 128.975 108.774 128.818 109.205C128.661 109.636 128.583 110.125 128.583 110.671C128.583 111.208 128.661 111.692 128.818 112.123C128.975 112.555 129.21 112.897 129.523 113.149C129.837 113.401 130.229 113.528 130.702 113.528C130.951 113.528 131.178 113.491 131.385 113.419C131.591 113.346 131.774 113.242 131.934 113.106C132.094 112.971 132.229 112.807 132.337 112.614C132.446 112.422 132.526 112.209 132.577 111.974L134.475 112.371C134.383 112.809 134.226 113.2 134.004 113.544C133.782 113.888 133.507 114.182 133.177 114.426C132.848 114.67 132.473 114.856 132.052 114.984C131.632 115.112 131.176 115.176 130.685 115.176ZM138.248 109.884V115H136.218V103.359H138.22V108.425H138.012C138.253 107.67 138.611 107.103 139.086 106.725C139.562 106.346 140.155 106.156 140.867 106.156C141.467 106.156 141.992 106.284 142.441 106.541C142.89 106.797 143.239 107.17 143.487 107.66C143.735 108.149 143.859 108.745 143.859 109.448V115H141.824V109.759C141.824 109.173 141.672 108.714 141.368 108.382C141.064 108.049 140.646 107.883 140.114 107.883C139.755 107.883 139.435 107.962 139.153 108.119C138.871 108.276 138.65 108.503 138.489 108.8C138.329 109.098 138.248 109.459 138.248 109.884ZM150.139 115V103.359H154.494C155.386 103.359 156.135 103.527 156.744 103.861C157.352 104.196 157.813 104.653 158.125 105.232C158.437 105.812 158.592 106.473 158.592 107.214C158.592 107.958 158.435 108.619 158.12 109.197C157.806 109.775 157.341 110.231 156.728 110.563C156.115 110.896 155.359 111.062 154.46 111.062H151.575V109.344H154.184C154.713 109.344 155.145 109.252 155.48 109.07C155.816 108.887 156.063 108.635 156.222 108.313C156.381 107.992 156.461 107.626 156.461 107.214C156.461 106.799 156.381 106.433 156.222 106.116C156.063 105.799 155.815 105.551 155.478 105.373C155.141 105.195 154.706 105.106 154.174 105.106H152.225V115H150.139ZM160.366 115V106.266H162.333V107.727H162.427C162.586 107.221 162.861 106.831 163.25 106.557C163.64 106.283 164.085 106.146 164.585 106.146C164.701 106.146 164.829 106.152 164.969 106.162C165.109 106.173 165.229 106.188 165.327 106.206V108.073C165.244 108.046 165.109 108.021 164.92 108C164.732 107.978 164.549 107.967 164.371 107.967C163.994 107.967 163.655 108.048 163.355 108.209C163.056 108.37 162.821 108.593 162.651 108.877C162.481 109.161 162.397 109.49 162.397 109.863V115H160.366ZM170.157 115.176C169.309 115.176 168.572 114.988 167.947 114.612C167.321 114.236 166.838 113.71 166.496 113.034C166.154 112.358 165.983 111.572 165.983 110.676C165.983 109.77 166.154 108.979 166.496 108.301C166.838 107.623 167.321 107.096 167.947 106.72C168.572 106.344 169.309 106.156 170.157 106.156C171.008 106.156 171.746 106.344 172.372 106.72C172.997 107.096 173.48 107.623 173.822 108.301C174.164 108.979 174.335 109.77 174.335 110.676C174.335 111.572 174.164 112.358 173.822 113.034C173.48 113.71 172.997 114.236 172.372 114.612C171.746 114.988 171.008 115.176 170.157 115.176ZM170.157 113.528C170.631 113.528 171.025 113.4 171.339 113.145C171.652 112.889 171.886 112.546 172.04 112.114C172.194 111.681 172.272 111.2 172.272 110.671C172.272 110.136 172.194 109.652 172.04 109.219C171.886 108.786 171.652 108.442 171.339 108.187C171.025 107.932 170.631 107.805 170.157 107.805C169.684 107.805 169.292 107.932 168.981 108.187C168.67 108.442 168.437 108.786 168.283 109.217C168.129 109.648 168.052 110.132 168.052 110.671C168.052 111.2 168.129 111.681 168.283 112.114C168.437 112.546 168.67 112.889 168.981 113.145C169.292 113.4 169.684 113.528 170.157 113.528ZM179.328 115.159C178.642 115.159 178.026 114.982 177.481 114.629C176.936 114.275 176.507 113.762 176.194 113.091C175.882 112.419 175.726 111.606 175.726 110.651C175.726 109.68 175.886 108.86 176.205 108.191C176.525 107.523 176.957 107.016 177.501 106.672C178.045 106.328 178.652 106.156 179.322 106.156C179.841 106.156 180.266 106.243 180.596 106.416C180.927 106.59 181.189 106.797 181.384 107.039C181.579 107.281 181.726 107.505 181.825 107.712H181.912V103.359H183.942V115H181.953V113.618H181.825C181.722 113.828 181.571 114.052 181.372 114.29C181.173 114.529 180.909 114.733 180.579 114.904C180.25 115.074 179.833 115.159 179.328 115.159ZM179.879 113.488C180.322 113.488 180.698 113.369 181.007 113.129C181.315 112.89 181.549 112.557 181.71 112.129C181.87 111.702 181.95 111.206 181.95 110.641C181.95 110.072 181.871 109.577 181.712 109.157C181.553 108.737 181.32 108.411 181.012 108.177C180.703 107.944 180.326 107.827 179.879 107.827C179.423 107.827 179.041 107.949 178.732 108.192C178.424 108.436 178.193 108.769 178.038 109.192C177.883 109.616 177.805 110.098 177.805 110.641C177.805 111.184 177.883 111.671 178.04 112.101C178.197 112.531 178.43 112.87 178.74 113.117C179.05 113.364 179.43 113.488 179.879 113.488ZM189.084 115.109C188.486 115.109 187.963 114.981 187.513 114.725C187.063 114.469 186.713 114.095 186.465 113.603C186.217 113.112 186.093 112.517 186.093 111.818V106.266H188.123V111.507C188.123 112.093 188.276 112.552 188.581 112.884C188.887 113.216 189.306 113.383 189.838 113.383C190.199 113.383 190.518 113.304 190.797 113.147C191.077 112.99 191.297 112.762 191.458 112.462C191.618 112.162 191.699 111.802 191.699 111.382V106.266H193.734V115H191.804L191.782 112.841H191.935C191.691 113.602 191.329 114.171 190.85 114.546C190.372 114.922 189.783 115.109 189.084 115.109ZM199.677 115.176C198.83 115.176 198.093 114.988 197.469 114.612C196.844 114.236 196.361 113.71 196.02 113.034C195.678 112.358 195.507 111.572 195.507 110.676C195.507 109.77 195.678 108.979 196.02 108.301C196.361 107.623 196.844 107.096 197.469 106.72C198.093 106.344 198.83 106.156 199.677 106.156C200.165 106.156 200.617 106.219 201.033 106.346C201.449 106.472 201.822 106.653 202.15 106.889C202.479 107.124 202.754 107.412 202.974 107.75C203.194 108.089 203.352 108.471 203.447 108.897L201.544 109.296C201.491 109.07 201.41 108.866 201.302 108.683C201.193 108.5 201.061 108.343 200.905 108.212C200.749 108.08 200.57 107.98 200.367 107.91C200.164 107.84 199.94 107.805 199.694 107.805C199.222 107.805 198.829 107.931 198.516 108.182C198.202 108.433 197.967 108.774 197.81 109.205C197.653 109.636 197.575 110.125 197.575 110.671C197.575 111.208 197.653 111.692 197.81 112.123C197.967 112.555 198.202 112.897 198.516 113.149C198.829 113.401 199.222 113.528 199.694 113.528C199.943 113.528 200.17 113.491 200.377 113.419C200.583 113.346 200.766 113.242 200.926 113.106C201.087 112.971 201.221 112.807 201.33 112.614C201.438 112.422 201.518 112.209 201.569 111.974L203.467 112.371C203.375 112.809 203.218 113.2 202.996 113.544C202.774 113.888 202.499 114.182 202.169 114.426C201.84 114.67 201.465 114.856 201.045 114.984C200.624 115.112 200.168 115.176 199.677 115.176ZM209.249 106.266V107.857H204.289V106.266H209.249ZM205.528 104.188H207.559V112.54C207.559 112.856 207.627 113.088 207.762 113.235C207.898 113.383 208.121 113.457 208.433 113.457C208.523 113.457 208.645 113.446 208.798 113.425C208.951 113.403 209.074 113.381 209.168 113.361L209.488 114.928C209.266 114.997 209.038 115.046 208.805 115.075C208.573 115.103 208.347 115.118 208.129 115.118C207.294 115.118 206.651 114.91 206.202 114.493C205.753 114.077 205.528 113.484 205.528 112.714V104.188Z" fill="#1E293B"/>
<rect x="515.78" y="99" width="88.22" height="24" rx="12" fill="#DCFCE7"/>
<path d="M529.948 106.27V115H528.834V106.27H529.948ZM532.983 111.074V115H531.928V108.449H532.942L532.948 110.037H532.801C533 109.432 533.285 109.002 533.654 108.748C534.023 108.494 534.456 108.367 534.952 108.367C535.393 108.367 535.78 108.458 536.112 108.64C536.444 108.821 536.703 109.095 536.888 109.46C537.074 109.825 537.167 110.285 537.167 110.84V115H536.112V110.928C536.112 110.424 535.98 110.029 535.716 109.744C535.453 109.459 535.092 109.316 534.635 109.316C534.323 109.316 534.042 109.385 533.792 109.521C533.542 109.658 533.344 109.857 533.2 110.119C533.055 110.381 532.983 110.699 532.983 111.074ZM542.522 115V106.27H545.51C546.19 106.27 546.75 106.394 547.189 106.642C547.628 106.89 547.955 107.223 548.167 107.641C548.38 108.059 548.487 108.527 548.487 109.047C548.487 109.566 548.38 110.037 548.167 110.459C547.955 110.881 547.629 111.217 547.192 111.467C546.754 111.717 546.196 111.842 545.516 111.842H543.401V110.863H545.463C545.924 110.863 546.295 110.784 546.577 110.626C546.858 110.468 547.062 110.251 547.189 109.976C547.316 109.7 547.379 109.391 547.379 109.047C547.379 108.703 547.316 108.396 547.189 108.124C547.062 107.853 546.857 107.639 546.574 107.482C546.291 107.326 545.917 107.248 545.452 107.248H543.635V115H542.522ZM550.057 115V108.449H551.077V109.457H551.147C551.268 109.125 551.484 108.858 551.794 108.657C552.105 108.456 552.456 108.355 552.846 108.355C552.924 108.355 553.017 108.357 553.125 108.361C553.232 108.365 553.317 108.369 553.379 108.373V109.434C553.348 109.426 553.27 109.414 553.145 109.398C553.02 109.383 552.887 109.375 552.747 109.375C552.434 109.375 552.154 109.44 551.906 109.571C551.658 109.702 551.463 109.882 551.323 110.11C551.182 110.339 551.112 110.602 551.112 110.898V115H550.057ZM557.042 115.141C556.448 115.141 555.927 115 555.48 114.719C555.033 114.438 554.684 114.043 554.434 113.535C554.184 113.027 554.059 112.438 554.059 111.766C554.059 111.082 554.184 110.485 554.434 109.976C554.684 109.466 555.033 109.07 555.48 108.789C555.927 108.508 556.448 108.367 557.042 108.367C557.639 108.367 558.163 108.508 558.612 108.789C559.061 109.07 559.411 109.466 559.661 109.976C559.911 110.485 560.036 111.082 560.036 111.766C560.036 112.438 559.911 113.027 559.661 113.535C559.411 114.043 559.061 114.438 558.612 114.719C558.163 115 557.639 115.141 557.042 115.141ZM557.042 114.197C557.483 114.197 557.846 114.084 558.131 113.857C558.417 113.631 558.627 113.333 558.764 112.964C558.901 112.595 558.969 112.195 558.969 111.766C558.969 111.332 558.901 110.929 558.764 110.556C558.627 110.183 558.417 109.882 558.131 109.653C557.846 109.425 557.483 109.311 557.042 109.311C556.604 109.311 556.245 109.425 555.963 109.653C555.682 109.882 555.473 110.182 555.336 110.553C555.2 110.924 555.131 111.328 555.131 111.766C555.131 112.195 555.2 112.595 555.336 112.964C555.473 113.333 555.682 113.631 555.963 113.857C556.245 114.084 556.604 114.197 557.042 114.197ZM564.225 117.59C563.741 117.59 563.322 117.528 562.968 117.405C562.615 117.282 562.321 117.119 562.086 116.916C561.852 116.713 561.667 116.492 561.53 116.254L562.385 115.703C562.479 115.828 562.595 115.967 562.734 116.119C562.873 116.271 563.06 116.401 563.296 116.509C563.533 116.616 563.842 116.67 564.225 116.67C564.749 116.67 565.179 116.545 565.517 116.295C565.855 116.045 566.024 115.65 566.024 115.111V113.799H565.924C565.85 113.924 565.746 114.072 565.611 114.244C565.476 114.416 565.283 114.567 565.031 114.698C564.779 114.829 564.442 114.895 564.02 114.895C563.497 114.895 563.026 114.771 562.608 114.522C562.19 114.274 561.86 113.912 561.618 113.436C561.375 112.959 561.254 112.379 561.254 111.695C561.254 111.02 561.374 110.433 561.612 109.935C561.85 109.437 562.179 109.051 562.599 108.777C563.019 108.504 563.5 108.367 564.043 108.367C564.465 108.367 564.802 108.437 565.054 108.575C565.306 108.714 565.5 108.873 565.637 109.053C565.774 109.232 565.879 109.381 565.954 109.498H566.053V108.449H567.079V115.17C567.079 115.732 566.952 116.192 566.698 116.55C566.444 116.907 566.101 117.17 565.669 117.338C565.238 117.506 564.756 117.59 564.225 117.59ZM564.196 113.957C564.594 113.957 564.93 113.866 565.204 113.685C565.477 113.503 565.684 113.241 565.825 112.899C565.965 112.558 566.036 112.148 566.036 111.672C566.036 111.207 565.966 110.798 565.828 110.444C565.689 110.091 565.483 109.813 565.209 109.612C564.936 109.411 564.598 109.311 564.196 109.311C563.782 109.311 563.436 109.417 563.159 109.63C562.881 109.843 562.673 110.127 562.535 110.482C562.396 110.838 562.327 111.234 562.327 111.672C562.327 112.121 562.397 112.518 562.538 112.861C562.678 113.205 562.887 113.474 563.165 113.667C563.442 113.86 563.786 113.957 564.196 113.957ZM568.93 115V108.449H569.95V109.457H570.02C570.141 109.125 570.357 108.858 570.667 108.657C570.978 108.456 571.329 108.355 571.719 108.355C571.797 108.355 571.89 108.357 571.998 108.361C572.105 108.365 572.19 108.369 572.252 108.373V109.434C572.221 109.426 572.143 109.414 572.018 109.398C571.893 109.383 571.76 109.375 571.62 109.375C571.307 109.375 571.027 109.44 570.779 109.571C570.531 109.702 570.336 109.882 570.196 110.11C570.055 110.339 569.985 110.602 569.985 110.898V115H568.93ZM576.002 115.141C575.37 115.141 574.824 115 574.365 114.719C573.906 114.438 573.552 114.045 573.304 113.541C573.056 113.037 572.932 112.449 572.932 111.777C572.932 111.105 573.053 110.514 573.295 110.002C573.538 109.49 573.88 109.09 574.324 108.801C574.767 108.512 575.286 108.367 575.879 108.367C576.227 108.367 576.57 108.425 576.908 108.54C577.246 108.655 577.552 108.841 577.828 109.097C578.103 109.353 578.323 109.689 578.487 110.107C578.651 110.525 578.733 111.037 578.733 111.643V112.082H573.647V111.191H578.165L577.672 111.52C577.672 111.09 577.605 110.708 577.47 110.374C577.335 110.04 577.135 109.778 576.87 109.589C576.604 109.399 576.274 109.305 575.879 109.305C575.485 109.305 575.147 109.401 574.866 109.595C574.584 109.788 574.37 110.04 574.221 110.351C574.073 110.661 573.999 110.994 573.999 111.35V111.941C573.999 112.426 574.083 112.837 574.25 113.175C574.418 113.513 574.654 113.769 574.957 113.942C575.259 114.116 575.61 114.203 576.008 114.203C576.266 114.203 576.5 114.166 576.711 114.092C576.922 114.018 577.104 113.905 577.256 113.755C577.409 113.604 577.526 113.418 577.608 113.195L578.627 113.477C578.526 113.805 578.354 114.094 578.112 114.344C577.87 114.594 577.57 114.789 577.212 114.93C576.855 115.07 576.452 115.141 576.002 115.141ZM582.471 115.141C582.022 115.141 581.623 115.075 581.273 114.944C580.923 114.813 580.635 114.619 580.409 114.361C580.182 114.104 580.03 113.787 579.952 113.412L580.954 113.172C581.047 113.531 581.224 113.795 581.484 113.963C581.744 114.131 582.069 114.215 582.459 114.215C582.917 114.215 583.281 114.117 583.552 113.922C583.824 113.727 583.959 113.494 583.959 113.225C583.959 112.998 583.88 112.81 583.722 112.659C583.564 112.509 583.323 112.396 582.999 112.322L581.909 112.064C581.315 111.924 580.874 111.706 580.584 111.411C580.295 111.116 580.151 110.738 580.151 110.277C580.151 109.902 580.256 109.571 580.467 109.284C580.678 108.997 580.966 108.772 581.332 108.61C581.697 108.448 582.112 108.367 582.577 108.367C583.026 108.367 583.408 108.435 583.722 108.569C584.037 108.704 584.292 108.89 584.49 109.126C584.687 109.362 584.834 109.635 584.932 109.943L583.977 110.189C583.887 109.955 583.738 109.742 583.529 109.551C583.32 109.359 583.004 109.264 582.583 109.264C582.192 109.264 581.867 109.354 581.607 109.533C581.347 109.713 581.217 109.939 581.217 110.213C581.217 110.455 581.305 110.649 581.481 110.796C581.657 110.942 581.936 111.061 582.319 111.15L583.309 111.385C583.903 111.525 584.342 111.743 584.627 112.038C584.913 112.333 585.055 112.705 585.055 113.154C585.055 113.537 584.947 113.878 584.73 114.177C584.513 114.476 584.21 114.711 583.822 114.883C583.433 115.055 582.983 115.141 582.471 115.141ZM588.805 115.141C588.356 115.141 587.957 115.075 587.607 114.944C587.257 114.813 586.969 114.619 586.743 114.361C586.516 114.104 586.364 113.787 586.286 113.412L587.288 113.172C587.381 113.531 587.558 113.795 587.818 113.963C588.078 114.131 588.403 114.215 588.793 114.215C589.25 114.215 589.615 114.117 589.886 113.922C590.158 113.727 590.293 113.494 590.293 113.225C590.293 112.998 590.214 112.81 590.056 112.659C589.898 112.509 589.657 112.396 589.333 112.322L588.243 112.064C587.649 111.924 587.208 111.706 586.918 111.411C586.629 111.116 586.485 110.738 586.485 110.277C586.485 109.902 586.59 109.571 586.801 109.284C587.012 108.997 587.3 108.772 587.666 108.61C588.031 108.448 588.446 108.367 588.911 108.367C589.36 108.367 589.742 108.435 590.056 108.569C590.371 108.704 590.626 108.89 590.824 109.126C591.021 109.362 591.168 109.635 591.266 109.943L590.311 110.189C590.221 109.955 590.072 109.742 589.863 109.551C589.654 109.359 589.338 109.264 588.917 109.264C588.526 109.264 588.201 109.354 587.941 109.533C587.681 109.713 587.551 109.939 587.551 110.213C587.551 110.455 587.639 110.649 587.815 110.796C587.991 110.942 588.27 111.061 588.653 111.15L589.643 111.385C590.237 111.525 590.676 111.743 590.961 112.038C591.247 112.333 591.389 112.705 591.389 113.154C591.389 113.537 591.281 113.878 591.064 114.177C590.847 114.476 590.544 114.711 590.156 114.883C589.767 115.055 589.317 115.141 588.805 115.141Z" fill="#15803D"/>
<rect x="88" y="135" width="516" height="8" rx="4" fill="#E2E8F0"/>
<rect x="88" y="135" width="335.39" height="8" rx="4" fill="url(#paint1_linear_39_357)"/>
<path d="M92.1589 159.045C92.4296 159.288 92.4515 159.701 92.2081 159.971L90.2394 162.159C90.119 162.293 89.9495 162.372 89.769 162.375C89.5886 162.378 89.4163 162.309 89.2878 162.184L88.1913 161.09C87.937 160.833 87.937 160.417 88.1913 160.16C88.4456 159.903 88.864 159.903 89.1183 160.16L89.7226 160.764L91.2292 159.091C91.4726 158.82 91.8854 158.798 92.1562 159.042L92.1589 159.045M92.1589 163.42C92.4296 163.663 92.4515 164.076 92.2081 164.346L90.2394 166.534C90.119 166.668 89.9495 166.747 89.769 166.75Cnan nan 89.4163 166.684 89.2878 166.559L88.1913 165.465C87.9343 165.208 87.9343 164.792 88.1913 164.538Cnan nan 88.864 164.281 89.1183 164.538L89.7226 165.142L91.2292 163.469C91.4726 163.198 91.8854 163.176 92.1562 163.42H92.1589M94.1249 160.625C94.1249 160.141 94.5159 159.75 94.9999 159.75H101.125C101.609 159.75 102 160.141 102 160.625Cnan nan 101.609 161.5 101.125 161.5H94.9999C94.5159 161.5 94.1249 161.109 94.1249 160.625V160.625M94.1249 165C94.1249 164.516 94.5159 164.125 94.9999 164.125H101.125C101.609 164.125 102 164.516 102 165Cnan nan 101.609 165.875 101.125 165.875H94.9999C94.5159 165.875 94.1249 165.484 94.1249 165V165M92.3749 169.375C92.3749 168.891 92.7659 168.5 93.2499 168.5H101.125C101.609 168.5 102 168.891 102 169.375Cnan nan 101.609 170.25 101.125 170.25H93.2499C92.7659 170.25 92.3749 169.859 92.3749 169.375V169.375M89.3124 168.062C90.0368 168.062 90.6249 168.651 90.6249 169.375C90.6249 170.099 90.0368 170.687 89.3124 170.687C88.588 170.687 87.9999 170.099 87.9999 169.375C87.9999 168.651 88.588 168.062 89.3124 168.062V168.062" fill="#475569"/>
<path d="M114.265 169.137C113.576 169.137 112.969 169.015 112.443 168.771C111.917 168.527 111.506 168.191 111.212 167.763C110.918 167.334 110.771 166.844 110.771 166.293C110.771 165.865 110.858 165.467 111.031 165.1C111.204 164.733 111.441 164.427 111.742 164.181C112.043 163.935 112.382 163.777 112.761 163.709V163.654C112.264 163.527 111.87 163.251 111.578 162.827C111.286 162.403 111.141 161.923 111.141 161.385C111.141 160.865 111.275 160.402 111.544 159.994C111.813 159.586 112.182 159.264 112.651 159.03C113.121 158.795 113.659 158.678 114.265 158.678C114.862 158.678 115.395 158.795 115.864 159.03C116.334 159.264 116.704 159.586 116.975 159.994C117.246 160.402 117.382 160.865 117.382 161.385C117.382 161.923 117.235 162.403 116.941 162.827C116.647 163.251 116.258 163.527 115.775 163.654V163.709C116.145 163.777 116.479 163.935 116.78 164.181C117.081 164.427 117.32 164.733 117.498 165.1C117.676 165.467 117.765 165.865 117.765 166.293C117.765 166.844 117.615 167.334 117.317 167.763C117.018 168.191 116.606 168.527 116.08 168.771C115.553 169.015 114.948 169.137 114.265 169.137ZM114.265 168.009C114.716 168.009 115.105 167.935 115.434 167.787C115.762 167.639 116.016 167.431 116.196 167.165C116.376 166.898 116.466 166.585 116.466 166.225C116.466 165.846 116.37 165.513 116.179 165.223C115.987 164.934 115.725 164.706 115.393 164.54C115.06 164.373 114.684 164.29 114.265 164.29C113.836 164.29 113.456 164.373 113.123 164.54C112.79 164.706 112.528 164.934 112.337 165.223C112.146 165.513 112.05 165.846 112.05 166.225C112.05 166.585 112.139 166.898 112.316 167.165C112.494 167.431 112.749 167.639 113.082 167.787C113.415 167.935 113.809 168.009 114.265 168.009ZM114.265 163.203C114.625 163.203 114.944 163.131 115.222 162.988C115.5 162.844 115.72 162.643 115.881 162.383C116.043 162.123 116.124 161.822 116.124 161.48C116.124 161.139 116.047 160.842 115.892 160.592C115.737 160.341 115.519 160.146 115.239 160.007C114.958 159.868 114.634 159.799 114.265 159.799C113.891 159.799 113.564 159.868 113.284 160.007C113.003 160.146 112.786 160.341 112.631 160.592C112.476 160.842 112.398 161.139 112.398 161.48C112.398 161.822 112.477 162.123 112.634 162.383C112.792 162.643 113.011 162.844 113.294 162.988C113.576 163.131 113.9 163.203 114.265 163.203ZM123.329 158.336L120.048 170.531H118.913L122.194 158.336H123.329ZM128.107 158.814V169H126.829V160.018H126.761L124.3 161.843V160.448L126.515 158.814H128.107ZM130.391 169V168.063L133.774 164.393C134.153 163.982 134.467 163.622 134.718 163.312C134.968 163.003 135.158 162.708 135.285 162.427C135.413 162.147 135.477 161.85 135.477 161.535C135.477 161.18 135.392 160.872 135.224 160.612C135.055 160.353 134.827 160.153 134.54 160.014C134.253 159.875 133.927 159.806 133.562 159.806C133.175 159.806 132.839 159.884 132.554 160.042C132.269 160.199 132.049 160.42 131.895 160.705C131.74 160.989 131.662 161.323 131.662 161.706H130.418C130.418 161.104 130.557 160.576 130.835 160.12C131.113 159.664 131.491 159.31 131.97 159.057C132.448 158.804 132.991 158.678 133.597 158.678C134.203 158.678 134.739 158.804 135.207 159.057C135.674 159.31 136.041 159.651 136.307 160.079C136.574 160.507 136.707 160.988 136.707 161.521C136.707 161.891 136.641 162.25 136.509 162.598C136.377 162.947 136.144 163.342 135.812 163.784C135.479 164.226 135.012 164.766 134.41 165.404L132.182 167.776V167.858H136.878V169H130.391ZM145.901 161.357V162.41H141.95V161.357H145.901ZM143.099 159.539H144.329V167.018C144.329 167.359 144.399 167.609 144.538 167.766C144.677 167.923 144.908 168.002 145.231 168.002C145.309 168.002 145.408 167.993 145.529 167.975C145.65 167.956 145.76 167.938 145.86 167.92L146.113 168.959C145.986 169.005 145.841 169.039 145.679 169.062C145.517 169.084 145.357 169.096 145.197 169.096C144.536 169.096 144.021 168.921 143.652 168.573C143.283 168.224 143.099 167.738 143.099 167.113V159.539ZM149.682 169.178C149.199 169.178 148.76 169.087 148.366 168.904C147.972 168.722 147.658 168.455 147.426 168.104C147.193 167.754 147.077 167.327 147.077 166.826C147.077 166.389 147.164 166.033 147.337 165.76C147.51 165.486 147.741 165.271 148.031 165.114C148.32 164.957 148.64 164.839 148.991 164.762C149.342 164.684 149.695 164.623 150.051 164.577C150.507 164.518 150.878 164.472 151.165 164.44C151.452 164.409 151.665 164.354 151.804 164.276C151.943 164.199 152.013 164.067 152.013 163.88V163.839C152.013 163.52 151.953 163.25 151.835 163.029C151.716 162.808 151.539 162.638 151.302 162.52C151.065 162.401 150.769 162.342 150.413 162.342C150.049 162.342 149.736 162.399 149.477 162.513C149.217 162.627 149.006 162.769 148.844 162.94C148.682 163.111 148.561 163.285 148.479 163.463L147.296 163.073C147.492 162.608 147.756 162.245 148.089 161.983C148.422 161.721 148.788 161.535 149.189 161.426C149.59 161.316 149.987 161.262 150.379 161.262C150.634 161.262 150.925 161.292 151.25 161.354C151.576 161.416 151.891 161.537 152.194 161.72C152.497 161.902 152.748 162.172 152.946 162.53C153.144 162.888 153.243 163.365 153.243 163.962V169H152.033V167.961H151.951C151.865 168.139 151.726 168.322 151.534 168.511C151.343 168.7 151.094 168.859 150.789 168.986C150.484 169.114 150.115 169.178 149.682 169.178ZM149.894 168.091C150.349 168.091 150.734 168.002 151.049 167.824C151.363 167.646 151.603 167.415 151.767 167.13C151.931 166.846 152.013 166.548 152.013 166.238V165.179C151.963 165.238 151.853 165.292 151.685 165.339C151.516 165.387 151.323 165.429 151.107 165.466C150.89 165.502 150.681 165.533 150.478 165.558C150.275 165.583 150.115 165.603 149.996 165.616C149.7 165.653 149.423 165.715 149.166 165.804C148.908 165.893 148.702 166.023 148.547 166.194C148.392 166.365 148.314 166.596 148.314 166.888C148.314 167.152 148.383 167.373 148.52 167.551C148.656 167.729 148.843 167.863 149.08 167.954C149.317 168.045 149.588 168.091 149.894 168.091ZM158.001 169.164C157.477 169.164 157.011 169.088 156.603 168.935C156.195 168.782 155.859 168.556 155.595 168.255C155.33 167.954 155.153 167.585 155.062 167.147L156.23 166.867C156.34 167.286 156.546 167.594 156.849 167.79C157.152 167.986 157.532 168.084 157.987 168.084C158.521 168.084 158.945 167.97 159.262 167.742C159.579 167.514 159.737 167.243 159.737 166.929C159.737 166.664 159.645 166.444 159.46 166.269C159.276 166.094 158.994 165.963 158.616 165.876L157.345 165.575C156.652 165.411 156.137 165.157 155.8 164.813C155.463 164.469 155.294 164.028 155.294 163.49C155.294 163.053 155.417 162.667 155.663 162.332C155.909 161.997 156.245 161.735 156.671 161.545C157.097 161.356 157.582 161.262 158.124 161.262C158.648 161.262 159.094 161.34 159.46 161.498C159.827 161.655 160.126 161.871 160.356 162.147C160.586 162.423 160.758 162.741 160.872 163.101L159.758 163.388C159.653 163.114 159.479 162.866 159.235 162.643C158.991 162.419 158.623 162.308 158.131 162.308C157.675 162.308 157.296 162.412 156.993 162.622C156.69 162.832 156.538 163.096 156.538 163.415C156.538 163.698 156.641 163.924 156.846 164.095C157.051 164.266 157.377 164.404 157.823 164.509L158.979 164.782C159.671 164.946 160.184 165.2 160.517 165.544C160.849 165.889 161.016 166.323 161.016 166.847C161.016 167.293 160.889 167.691 160.636 168.04C160.383 168.388 160.03 168.663 159.577 168.863C159.123 169.064 158.598 169.164 158.001 169.164ZM163.948 166.252V164.728H164.174L167.441 161.357H168.966L165.432 164.987H165.295L163.948 166.252ZM162.793 169V158.814H164.023V169H162.793ZM167.626 169L164.7 165.261L165.575 164.393L169.205 169H167.626ZM173.074 169.164C172.55 169.164 172.084 169.088 171.676 168.935C171.268 168.782 170.932 168.556 170.668 168.255C170.404 167.954 170.226 167.585 170.135 167.147L171.304 166.867C171.413 167.286 171.619 167.594 171.922 167.79C172.225 167.986 172.605 168.084 173.061 168.084C173.594 168.084 174.019 167.97 174.335 167.742C174.652 167.514 174.811 167.243 174.811 166.929C174.811 166.664 174.718 166.444 174.534 166.269C174.349 166.094 174.068 165.963 173.689 165.876L172.418 165.575C171.725 165.411 171.21 165.157 170.873 164.813C170.536 164.469 170.367 164.028 170.367 163.49C170.367 163.053 170.49 162.667 170.736 162.332C170.982 161.997 171.319 161.735 171.745 161.545C172.171 161.356 172.655 161.262 173.197 161.262C173.721 161.262 174.167 161.34 174.534 161.498C174.901 161.655 175.199 161.871 175.429 162.147C175.659 162.423 175.831 162.741 175.945 163.101L174.831 163.388C174.726 163.114 174.552 162.866 174.308 162.643C174.064 162.419 173.696 162.308 173.204 162.308C172.748 162.308 172.369 162.412 172.066 162.622C171.763 162.832 171.611 163.096 171.611 163.415C171.611 163.698 171.714 163.924 171.919 164.095C172.124 164.266 172.45 164.404 172.896 164.509L174.052 164.782C174.744 164.946 175.257 165.2 175.59 165.544C175.923 165.889 176.089 166.323 176.089 166.847C176.089 167.293 175.962 167.691 175.709 168.04C175.457 168.388 175.103 168.663 174.65 168.863C174.196 169.064 173.671 169.164 173.074 169.164Z" fill="#475569"/>
<path d="M199.8 158C203.663 158 206.8 161.137 206.8 165C206.8 168.863 203.663 172 199.8 172C195.936 172 192.8 168.863 192.8 165C192.8 161.137 195.936 158 199.8 158V158M199.144 161.281V165C199.144 165.219 199.253 165.424 199.436 165.547L202.061 167.297C202.362 167.499 202.769 167.417 202.972 167.114Cnan nan 203.092 166.405 202.788 166.203L200.456 164.65V161.281C200.456 160.918 200.163 160.625 199.8 160.625Cnan nan 199.144 160.918 199.144 161.281V161.281" fill="#475569"/>
<path d="M215.79 169V168.063L219.174 164.393C219.552 163.982 219.867 163.622 220.117 163.312C220.368 163.003 220.557 162.708 220.685 162.427C220.812 162.147 220.876 161.85 220.876 161.535C220.876 161.18 220.792 160.872 220.623 160.612C220.454 160.353 220.227 160.153 219.939 160.014C219.652 159.875 219.326 159.806 218.962 159.806C218.575 159.806 218.238 159.884 217.954 160.042C217.669 160.199 217.449 160.42 217.294 160.705C217.139 160.989 217.062 161.323 217.062 161.706H215.817C215.817 161.104 215.956 160.576 216.234 160.12C216.512 159.664 216.891 159.31 217.369 159.057C217.848 158.804 218.39 158.678 218.996 158.678C219.602 158.678 220.139 158.804 220.606 159.057C221.073 159.31 221.44 159.651 221.707 160.079C221.973 160.507 222.106 160.988 222.106 161.521C222.106 161.891 222.04 162.25 221.908 162.598C221.776 162.947 221.544 163.342 221.211 163.784C220.878 164.226 220.411 164.766 219.81 165.404L217.581 167.776V167.858H222.277V169H215.79ZM225.586 164.42V169H224.355V158.814H225.586V163.21H225.374C225.606 162.504 225.938 162.002 226.369 161.706C226.799 161.41 227.304 161.262 227.883 161.262C228.398 161.262 228.85 161.368 229.24 161.58C229.629 161.792 229.932 162.111 230.149 162.537C230.365 162.963 230.474 163.499 230.474 164.146V169H229.236V164.249C229.236 163.661 229.083 163.201 228.775 162.868C228.467 162.535 228.047 162.369 227.514 162.369C227.149 162.369 226.821 162.449 226.529 162.608C226.238 162.768 226.007 163 225.839 163.306C225.67 163.611 225.586 163.982 225.586 164.42ZM239.832 169.137C239.167 169.137 238.576 169.023 238.062 168.795C237.547 168.567 237.138 168.25 236.834 167.845C236.531 167.439 236.368 166.967 236.346 166.43H237.658C237.686 166.753 237.796 167.032 237.99 167.267C238.183 167.502 238.439 167.682 238.755 167.807C239.072 167.932 239.424 167.995 239.812 167.995C240.24 167.995 240.619 167.921 240.95 167.773C241.28 167.625 241.541 167.416 241.732 167.147C241.924 166.879 242.02 166.569 242.02 166.218C242.02 165.849 241.927 165.524 241.743 165.244C241.558 164.963 241.29 164.743 240.939 164.584C240.589 164.424 240.16 164.345 239.654 164.345H238.827V163.217H239.654C240.051 163.217 240.401 163.145 240.704 163.001C241.007 162.858 241.243 162.656 241.411 162.396C241.58 162.137 241.664 161.831 241.664 161.48C241.664 161.143 241.59 160.849 241.442 160.599C241.294 160.348 241.083 160.153 240.81 160.014C240.536 159.875 240.215 159.806 239.846 159.806C239.499 159.806 239.175 159.868 238.872 159.994C238.569 160.119 238.32 160.298 238.126 160.53C237.933 160.763 237.829 161.045 237.815 161.378H236.564C236.583 160.845 236.742 160.375 237.043 159.97C237.344 159.564 237.741 159.247 238.236 159.02C238.73 158.792 239.276 158.678 239.873 158.678C240.507 158.678 241.052 158.805 241.51 159.061C241.968 159.316 242.32 159.651 242.566 160.065C242.812 160.48 242.936 160.929 242.936 161.412C242.936 161.986 242.784 162.474 242.481 162.875C242.178 163.276 241.767 163.554 241.247 163.709V163.791C241.68 163.859 242.05 164.005 242.358 164.229C242.666 164.452 242.9 164.734 243.062 165.076C243.224 165.418 243.305 165.803 243.305 166.231C243.305 166.787 243.154 167.284 242.854 167.722C242.553 168.159 242.14 168.504 241.616 168.757C241.092 169.01 240.497 169.137 239.832 169.137ZM244.959 166.929V165.869L249.416 158.814H250.202V160.441H249.676L246.347 165.705V165.787H252.376V166.929H244.959ZM249.751 169V166.614L249.758 166.115V158.814H250.995V169H249.751ZM254.263 169V161.357H255.459L255.466 163.066H255.37C255.475 162.652 255.64 162.309 255.866 162.038C256.091 161.766 256.356 161.562 256.659 161.426C256.962 161.289 257.277 161.221 257.605 161.221C258.161 161.221 258.611 161.392 258.956 161.733C259.3 162.075 259.522 162.524 259.622 163.08H259.458C259.549 162.697 259.715 162.367 259.957 162.089C260.199 161.811 260.491 161.597 260.835 161.446C261.18 161.296 261.554 161.221 261.96 161.221C262.402 161.221 262.805 161.316 263.17 161.508C263.535 161.699 263.825 161.989 264.042 162.376C264.258 162.763 264.366 163.253 264.366 163.846V169H263.136V163.88C263.136 163.328 262.981 162.934 262.671 162.697C262.361 162.46 262.001 162.342 261.591 162.342C261.249 162.342 260.954 162.414 260.706 162.557C260.457 162.701 260.266 162.898 260.131 163.148C259.997 163.399 259.93 163.686 259.93 164.01V169H258.699V163.757C258.699 163.333 258.558 162.991 258.275 162.731C257.993 162.472 257.635 162.342 257.202 162.342C256.906 162.342 256.627 162.411 256.365 162.55C256.103 162.689 255.892 162.896 255.732 163.169C255.573 163.442 255.493 163.782 255.493 164.188V169H254.263Z" fill="#475569"/>
<rect x="71.5" y="208.5" width="549" height="57" rx="11.5" fill="#F8FAFC"/>
<rect x="71.5" y="208.5" width="549" height="57" rx="11.5" stroke="#E2E8F0"/>
<path d="M93.0742 241H90.1942V239.44H92.9748C93.8562 239.44 94.5889 239.275 95.1728 238.946C95.7568 238.616 96.194 238.132 96.4844 237.495C96.7748 236.858 96.92 236.08 96.92 235.162C96.92 234.251 96.7754 233.48 96.4862 232.85C96.197 232.219 95.768 231.739 95.1992 231.411C94.6305 231.083 93.9218 230.919 93.0733 230.919H90.1345V229.359H93.1875C94.3342 229.359 95.3157 229.591 96.1321 230.055C96.9485 230.519 97.5755 231.185 98.0132 232.053C98.4509 232.921 98.6697 233.957 98.6697 235.162C98.6697 236.374 98.45 237.417 98.0107 238.289C97.5714 239.161 96.9344 239.83 96.0997 240.298C95.265 240.766 94.2565 241 93.0742 241ZM91.0734 229.359V241H89.2881V229.359H91.0734ZM104.467 241.182C103.608 241.182 102.866 240.996 102.243 240.624C101.62 240.253 101.14 239.731 100.804 239.059C100.468 238.387 100.3 237.599 100.3 236.695C100.3 235.798 100.465 235.009 100.795 234.328C101.125 233.647 101.592 233.115 102.196 232.732C102.8 232.348 103.507 232.156 104.319 232.156C104.818 232.156 105.3 232.238 105.766 232.401C106.231 232.564 106.649 232.82 107.018 233.17C107.388 233.519 107.68 233.972 107.896 234.529C108.112 235.085 108.22 235.757 108.22 236.545V237.154H101.256V235.871H107.335L106.532 236.295C106.532 235.761 106.449 235.29 106.283 234.881C106.117 234.472 105.87 234.153 105.543 233.923C105.216 233.693 104.81 233.578 104.324 233.578C103.838 233.578 103.424 233.695 103.08 233.929C102.735 234.164 102.473 234.472 102.292 234.856C102.111 235.239 102.02 235.657 102.02 236.109V236.981C102.02 237.58 102.123 238.087 102.329 238.502C102.534 238.917 102.823 239.23 103.194 239.442C103.566 239.654 103.996 239.76 104.485 239.76C104.805 239.76 105.096 239.714 105.358 239.622C105.62 239.531 105.846 239.392 106.035 239.208C106.224 239.023 106.369 238.795 106.47 238.522L108.082 238.903C107.945 239.355 107.711 239.753 107.38 240.095C107.048 240.437 106.636 240.704 106.144 240.895C105.651 241.086 105.092 241.182 104.467 241.182ZM113.237 241.182C112.603 241.182 112.041 241.09 111.549 240.907C111.058 240.723 110.654 240.454 110.339 240.097C110.023 239.741 109.814 239.306 109.71 238.793L111.329 238.454C111.45 238.909 111.674 239.245 112 239.462C112.326 239.679 112.743 239.787 113.25 239.787C113.805 239.787 114.246 239.672 114.574 239.442C114.901 239.211 115.065 238.933 115.065 238.606C115.065 238.328 114.964 238.098 114.762 237.916C114.56 237.734 114.251 237.597 113.835 237.504L112.365 237.172C111.556 236.989 110.954 236.698 110.558 236.298C110.163 235.898 109.965 235.384 109.965 234.757C109.965 234.237 110.109 233.782 110.399 233.392C110.688 233.002 111.086 232.699 111.594 232.482C112.101 232.265 112.684 232.156 113.342 232.156C113.972 232.156 114.511 232.248 114.959 232.431C115.407 232.615 115.77 232.87 116.049 233.195C116.328 233.521 116.529 233.901 116.652 234.334L115.11 234.675C114.999 234.367 114.809 234.096 114.54 233.863C114.27 233.63 113.877 233.513 113.36 233.513C112.884 233.513 112.488 233.62 112.17 233.834C111.852 234.048 111.693 234.321 111.693 234.652C111.693 234.941 111.799 235.175 112.012 235.356C112.224 235.537 112.569 235.681 113.047 235.79L114.45 236.102C115.259 236.284 115.86 236.571 116.251 236.963C116.642 237.355 116.837 237.854 116.837 238.462C116.837 238.993 116.685 239.463 116.381 239.871C116.077 240.28 115.654 240.601 115.113 240.833C114.572 241.066 113.947 241.182 113.237 241.182ZM118.718 241V232.266H120.437V241H118.718ZM119.582 230.933C119.288 230.933 119.034 230.833 118.822 230.633C118.609 230.433 118.503 230.192 118.503 229.912C118.503 229.626 118.609 229.385 118.822 229.187C119.034 228.99 119.288 228.891 119.582 228.891C119.881 228.891 120.137 228.989 120.349 229.187C120.562 229.384 120.668 229.626 120.668 229.912C120.668 230.192 120.562 230.433 120.349 230.633C120.137 230.833 119.881 230.933 119.582 230.933ZM126.402 244.453C125.729 244.453 125.146 244.368 124.651 244.197C124.157 244.027 123.749 243.797 123.428 243.509C123.106 243.221 122.863 242.901 122.699 242.551L124.131 241.876C124.239 242.04 124.38 242.216 124.554 242.403C124.728 242.59 124.963 242.747 125.258 242.875C125.553 243.004 125.933 243.068 126.4 243.068C127.064 243.068 127.603 242.911 128.017 242.597C128.432 242.284 128.639 241.791 128.639 241.119V239.417H128.489C128.389 239.606 128.245 239.813 128.059 240.039C127.874 240.264 127.615 240.458 127.285 240.621C126.954 240.784 126.522 240.865 125.99 240.865C125.306 240.865 124.689 240.703 124.138 240.38C123.587 240.057 123.151 239.579 122.829 238.945C122.508 238.311 122.347 237.531 122.347 236.602C122.347 235.673 122.507 234.877 122.827 234.214C123.147 233.551 123.584 233.042 124.137 232.688C124.69 232.333 125.315 232.156 126.013 232.156C126.552 232.156 126.988 232.245 127.323 232.424C127.657 232.602 127.92 232.812 128.11 233.053C128.3 233.295 128.446 233.506 128.548 233.688H128.668V232.266H130.349V241.127C130.349 241.889 130.176 242.516 129.829 243.008C129.483 243.5 129.012 243.864 128.416 244.1C127.82 244.335 127.149 244.453 126.402 244.453ZM126.39 239.438C126.878 239.438 127.29 239.324 127.626 239.097C127.962 238.87 128.217 238.542 128.391 238.114C128.565 237.686 128.652 237.174 128.652 236.577C128.652 235.991 128.566 235.476 128.394 235.034C128.222 234.592 127.969 234.246 127.633 233.996C127.297 233.746 126.882 233.621 126.39 233.621C125.886 233.621 125.464 233.752 125.124 234.015C124.784 234.278 124.529 234.631 124.358 235.076C124.187 235.52 124.102 236.02 124.102 236.577C124.102 237.145 124.188 237.644 124.361 238.074C124.534 238.504 124.791 238.839 125.13 239.079C125.47 239.318 125.89 239.438 126.39 239.438ZM134.382 235.825V241H132.663V232.266H134.302L134.32 234.404H134.142C134.396 233.623 134.765 233.053 135.248 232.694C135.732 232.336 136.317 232.156 137.004 232.156C137.598 232.156 138.118 232.281 138.563 232.53C139.008 232.779 139.354 233.148 139.602 233.636C139.85 234.125 139.974 234.729 139.974 235.45V241H138.256V235.665C138.256 235.036 138.092 234.543 137.764 234.187C137.436 233.831 136.987 233.652 136.416 233.652C136.029 233.652 135.681 233.737 135.374 233.907C135.066 234.077 134.824 234.323 134.647 234.646C134.47 234.969 134.382 235.362 134.382 235.825ZM150.595 241.192C149.725 241.192 148.97 241.054 148.328 240.778C147.686 240.502 147.185 240.108 146.824 239.596C146.463 239.084 146.263 238.474 146.223 237.765H148.012C148.05 238.187 148.188 238.537 148.426 238.814C148.664 239.091 148.972 239.297 149.351 239.432C149.73 239.568 150.141 239.636 150.586 239.636C151.078 239.636 151.517 239.558 151.902 239.402C152.287 239.246 152.591 239.027 152.812 238.744C153.034 238.461 153.145 238.133 153.145 237.761C153.145 237.422 153.049 237.144 152.855 236.928C152.662 236.712 152.4 236.532 152.068 236.388C151.736 236.245 151.36 236.118 150.94 236.008L149.576 235.637C148.623 235.379 147.879 235 147.346 234.499C146.812 233.999 146.546 233.35 146.546 232.554C146.546 231.883 146.727 231.295 147.09 230.792C147.452 230.288 147.945 229.898 148.567 229.62C149.19 229.342 149.891 229.203 150.672 229.203C151.47 229.203 152.171 229.343 152.777 229.621C153.383 229.9 153.859 230.282 154.206 230.767C154.553 231.252 154.735 231.804 154.753 232.423H153.016C152.956 231.889 152.709 231.476 152.275 231.184C151.841 230.892 151.294 230.746 150.634 230.746C150.166 230.746 149.758 230.82 149.411 230.968C149.064 231.117 148.796 231.319 148.607 231.576C148.419 231.833 148.324 232.127 148.324 232.457C148.324 232.823 148.437 233.12 148.664 233.347C148.89 233.575 149.166 233.755 149.492 233.886C149.818 234.018 150.129 234.122 150.425 234.2L151.551 234.5C151.922 234.592 152.305 234.719 152.697 234.879C153.09 235.038 153.454 235.245 153.788 235.497C154.123 235.75 154.394 236.062 154.6 236.435C154.807 236.808 154.91 237.256 154.91 237.78C154.91 238.439 154.74 239.026 154.401 239.541C154.062 240.055 153.571 240.459 152.927 240.752C152.284 241.045 151.506 241.192 150.595 241.192ZM156.776 244.14L157.195 242.739L157.389 242.79C157.686 242.866 157.953 242.887 158.19 242.852C158.427 242.817 158.633 242.707 158.808 242.521C158.982 242.335 159.121 242.055 159.225 241.681L159.415 241.04L156.097 232.266H157.953L159.681 237.23C159.874 237.782 160.033 238.331 160.161 238.875C160.288 239.42 160.426 239.963 160.574 240.505H160.049C160.197 239.963 160.34 239.419 160.479 238.871C160.617 238.323 160.782 237.776 160.973 237.23L162.735 232.266H164.576L160.782 242.213C160.605 242.679 160.388 243.069 160.131 243.383C159.874 243.698 159.567 243.934 159.211 244.091C158.856 244.249 158.443 244.328 157.973 244.328C157.704 244.328 157.463 244.308 157.25 244.269C157.038 244.23 156.88 244.187 156.776 244.14ZM169.229 241.182C168.596 241.182 168.033 241.09 167.542 240.907C167.05 240.723 166.647 240.454 166.331 240.097C166.015 239.741 165.806 239.306 165.703 238.793L167.321 238.454C167.442 238.909 167.666 239.245 167.992 239.462C168.318 239.679 168.735 239.787 169.242 239.787C169.797 239.787 170.238 239.672 170.566 239.442C170.894 239.211 171.058 238.933 171.058 238.606C171.058 238.328 170.956 238.098 170.754 237.916C170.552 237.734 170.243 237.597 169.827 237.504L168.357 237.172C167.548 236.989 166.946 236.698 166.55 236.298C166.155 235.898 165.957 235.384 165.957 234.757C165.957 234.237 166.101 233.782 166.391 233.392C166.68 233.002 167.078 232.699 167.586 232.482C168.094 232.265 168.676 232.156 169.335 232.156C169.965 232.156 170.503 232.248 170.951 232.431C171.399 232.615 171.763 232.87 172.042 233.195C172.321 233.521 172.521 233.901 172.644 234.334L171.102 234.675C170.992 234.367 170.802 234.096 170.532 233.863C170.262 233.63 169.869 233.513 169.352 233.513C168.877 233.513 168.48 233.62 168.162 233.834C167.844 234.048 167.685 234.321 167.685 234.652C167.685 234.941 167.791 235.175 168.004 235.356C168.216 235.537 168.561 235.681 169.039 235.79L170.442 236.102C171.252 236.284 171.852 236.571 172.243 236.963C172.634 237.355 172.829 237.854 172.829 238.462C172.829 238.993 172.677 239.463 172.373 239.871C172.069 240.28 171.646 240.601 171.105 240.833C170.564 241.066 169.939 241.182 169.229 241.182ZM178.449 232.266V233.663H173.711V232.266H178.449ZM174.987 230.188H176.705V238.637C176.705 238.99 176.779 239.249 176.926 239.413C177.073 239.576 177.317 239.658 177.658 239.658C177.747 239.658 177.865 239.648 178.01 239.626C178.156 239.605 178.281 239.584 178.385 239.563L178.69 240.94C178.505 241.001 178.309 241.045 178.1 241.072C177.891 241.1 177.687 241.114 177.487 241.114C176.691 241.114 176.076 240.91 175.64 240.503C175.205 240.095 174.987 239.521 174.987 238.779V230.188ZM183.764 241.182C182.904 241.182 182.163 240.996 181.54 240.624C180.916 240.253 180.437 239.731 180.101 239.059C179.765 238.387 179.597 237.599 179.597 236.695C179.597 235.798 179.762 235.009 180.092 234.328C180.422 233.647 180.889 233.115 181.493 232.732C182.097 232.348 182.804 232.156 183.615 232.156C184.115 232.156 184.597 232.238 185.062 232.401C185.528 232.564 185.946 232.82 186.315 233.17C186.685 233.519 186.977 233.972 187.193 234.529C187.409 235.085 187.517 235.757 187.517 236.545V237.154H180.553V235.871H186.631L185.829 236.295C185.829 235.761 185.746 235.29 185.58 234.881C185.414 234.472 185.167 234.153 184.84 233.923C184.513 233.693 184.107 233.578 183.621 233.578C183.135 233.578 182.72 233.695 182.376 233.929C182.032 234.164 181.77 234.472 181.589 234.856C181.408 235.239 181.317 235.657 181.317 236.109V236.981C181.317 237.58 181.42 238.087 181.626 238.502C181.831 238.917 182.12 239.23 182.491 239.442C182.862 239.654 183.293 239.76 183.782 239.76C184.102 239.76 184.393 239.714 184.655 239.622C184.917 239.531 185.143 239.392 185.332 239.208C185.521 239.023 185.666 238.795 185.767 238.522L187.379 238.903C187.242 239.355 187.008 239.753 186.676 240.095C186.345 240.437 185.933 240.704 185.441 240.895C184.948 241.086 184.389 241.182 183.764 241.182ZM189.398 241V232.266H191.035L191.078 234.292H190.949C191.072 233.796 191.264 233.389 191.524 233.07C191.785 232.75 192.089 232.512 192.438 232.354C192.788 232.197 193.152 232.118 193.532 232.118C194.164 232.118 194.676 232.315 195.067 232.708C195.458 233.101 195.722 233.649 195.859 234.35H195.643C195.756 233.871 195.953 233.465 196.236 233.133C196.519 232.801 196.858 232.549 197.254 232.376C197.65 232.204 198.077 232.118 198.535 232.118C199.05 232.118 199.516 232.23 199.933 232.453C200.351 232.676 200.682 233.009 200.928 233.451C201.173 233.894 201.296 234.446 201.296 235.109V241H199.578V235.285C199.578 234.7 199.415 234.277 199.09 234.016C198.765 233.755 198.381 233.624 197.939 233.624C197.58 233.624 197.27 233.7 197.009 233.853C196.747 234.005 196.546 234.215 196.405 234.482C196.264 234.749 196.194 235.057 196.194 235.407V241H194.5V235.17C194.5 234.704 194.351 234.33 194.051 234.048C193.752 233.765 193.37 233.624 192.906 233.624C192.589 233.624 192.294 233.698 192.02 233.846C191.747 233.994 191.527 234.213 191.363 234.501C191.198 234.79 191.116 235.147 191.116 235.573V241H189.398Z" fill="#334155"/>
<path d="M603.706 236.294C604.097 236.684 604.097 237.319 603.706 237.709L597.706 243.709C597.316 244.1 596.681 244.1 596.291 243.709C595.9 243.319 595.9 242.684 596.291 242.294L601.584 237L596.294 231.706C595.903 231.316 595.903 230.681 596.294 230.291C596.684 229.9 597.319 229.9 597.709 230.291L603.709 236.291L603.706 236.294" fill="#94A3B8"/>
<rect x="71.5" y="282.5" width="549" height="57" rx="11.5" fill="#F8FAFC"/>
<rect x="71.5" y="282.5" width="549" height="57" rx="11.5" stroke="#E2E8F0"/>
<path d="M89.2881 315V303.359H91.915L94.4545 310.037C94.526 310.234 94.6073 310.484 94.6984 310.789C94.7894 311.093 94.8846 311.422 94.9837 311.776C95.0829 312.13 95.1772 312.479 95.2667 312.823C95.3562 313.166 95.4334 313.476 95.4983 313.753H95.1237C95.1929 313.489 95.272 313.188 95.361 312.848C95.45 312.509 95.5441 312.161 95.6433 311.805C95.7424 311.449 95.8384 311.115 95.9312 310.805C96.0239 310.494 96.106 310.238 96.1775 310.037L98.6822 303.359H101.317V315H99.5452V308.738C99.5452 308.494 99.5474 308.206 99.5519 307.875C99.5564 307.544 99.5632 307.192 99.5724 306.82C99.5816 306.448 99.5906 306.071 99.5994 305.689C99.6081 305.307 99.6146 304.941 99.6189 304.592H99.7538C99.6472 304.975 99.5329 305.368 99.411 305.769C99.2891 306.171 99.1688 306.559 99.0502 306.935C98.9316 307.31 98.8193 307.653 98.7133 307.965C98.6072 308.276 98.5168 308.534 98.442 308.738L96.0655 315H94.5359L92.1231 308.738C92.0483 308.538 91.9598 308.286 91.8576 307.981C91.7553 307.676 91.6444 307.338 91.5249 306.967C91.4054 306.596 91.2834 306.207 91.1588 305.801C91.0343 305.396 90.9097 304.992 90.7851 304.592H90.9412C90.9498 304.911 90.9584 305.258 90.9672 305.631C90.9759 306.004 90.9838 306.38 90.9909 306.759C90.998 307.138 91.0049 307.498 91.0115 307.84C91.0181 308.182 91.0214 308.481 91.0214 308.738V315H89.2881ZM106.201 315.192C105.648 315.192 105.148 315.09 104.701 314.886C104.255 314.682 103.901 314.381 103.64 313.985C103.379 313.589 103.248 313.104 103.248 312.53C103.248 312.033 103.344 311.627 103.535 311.31C103.727 310.992 103.984 310.741 104.308 310.554C104.632 310.368 104.993 310.228 105.392 310.134C105.79 310.041 106.197 309.97 106.612 309.921C107.127 309.859 107.546 309.809 107.868 309.769C108.19 309.73 108.428 309.665 108.582 309.574C108.736 309.483 108.813 309.335 108.813 309.13V309.086C108.813 308.76 108.75 308.484 108.625 308.258C108.499 308.032 108.312 307.859 108.064 307.738C107.816 307.617 107.507 307.557 107.137 307.557C106.76 307.557 106.435 307.615 106.162 307.732C105.89 307.849 105.668 307.998 105.497 308.179C105.326 308.36 105.199 308.549 105.116 308.748L103.498 308.332C103.697 307.808 103.981 307.388 104.351 307.07C104.721 306.752 105.145 306.52 105.624 306.375C106.102 306.229 106.599 306.156 107.113 306.156C107.464 306.156 107.837 306.198 108.233 306.282C108.629 306.366 109.001 306.517 109.349 306.735C109.697 306.952 109.982 307.26 110.202 307.657C110.422 308.055 110.532 308.57 110.532 309.201V315H108.869V313.804H108.781C108.668 314.03 108.499 314.249 108.275 314.462C108.051 314.676 107.768 314.851 107.426 314.987C107.084 315.124 106.675 315.192 106.201 315.192ZM106.582 313.816C107.053 313.816 107.454 313.724 107.787 313.54C108.119 313.355 108.375 313.113 108.552 312.813C108.73 312.512 108.819 312.193 108.819 311.855V310.733C108.757 310.794 108.638 310.85 108.463 310.9C108.289 310.951 108.09 310.995 107.868 311.034C107.646 311.073 107.43 311.106 107.22 311.133C107.009 311.16 106.837 311.182 106.704 311.199C106.382 311.24 106.087 311.309 105.818 311.408C105.549 311.507 105.335 311.647 105.177 311.83C105.019 312.012 104.94 312.253 104.94 312.554C104.94 312.83 105.011 313.062 105.153 313.249C105.295 313.436 105.489 313.577 105.736 313.673C105.982 313.768 106.264 313.816 106.582 313.816ZM112.843 315V306.266H114.506V307.668H114.6C114.761 307.194 115.042 306.821 115.444 306.55C115.845 306.279 116.302 306.143 116.812 306.143C116.922 306.143 117.048 306.147 117.19 306.155C117.331 306.163 117.448 306.173 117.539 306.185V307.826C117.476 307.807 117.356 307.787 117.179 307.765C117.002 307.744 116.821 307.733 116.639 307.733C116.242 307.733 115.885 307.817 115.57 307.985C115.255 308.153 115.008 308.384 114.829 308.679C114.651 308.973 114.562 309.313 114.562 309.697V315H112.843ZM120.87 312.053V309.953H121.16L124.602 306.266H126.666L122.715 310.491H122.427L120.87 312.053ZM119.281 315V303.359H120.999V315H119.281ZM124.78 315L121.678 310.874L122.867 309.658L126.904 315H124.78ZM131.631 315.182C130.772 315.182 130.03 314.996 129.407 314.624C128.784 314.253 128.304 313.731 127.968 313.059C127.632 312.387 127.464 311.599 127.464 310.695C127.464 309.798 127.629 309.009 127.959 308.328C128.289 307.647 128.756 307.115 129.36 306.732C129.964 306.348 130.671 306.156 131.483 306.156C131.982 306.156 132.464 306.238 132.93 306.401C133.395 306.564 133.813 306.82 134.182 307.17C134.552 307.519 134.845 307.972 135.06 308.529C135.276 309.085 135.384 309.757 135.384 310.545V311.154H128.42V309.871H134.499L133.696 310.295C133.696 309.761 133.613 309.29 133.447 308.881C133.281 308.472 133.034 308.153 132.707 307.923C132.38 307.693 131.974 307.578 131.488 307.578C131.003 307.578 130.588 307.695 130.244 307.929C129.9 308.164 129.637 308.472 129.456 308.856C129.275 309.239 129.184 309.657 129.184 310.109V310.981C129.184 311.58 129.287 312.087 129.493 312.502C129.699 312.917 129.987 313.23 130.358 313.442C130.73 313.654 131.16 313.76 131.649 313.76C131.969 313.76 132.26 313.714 132.522 313.622C132.784 313.531 133.01 313.392 133.199 313.208C133.388 313.023 133.533 312.795 133.634 312.522L135.247 312.903C135.109 313.355 134.875 313.753 134.544 314.095C134.212 314.437 133.8 314.704 133.308 314.895C132.815 315.086 132.256 315.182 131.631 315.182ZM141.003 306.266V307.663H136.266V306.266H141.003ZM137.542 304.188H139.26V312.637C139.26 312.99 139.334 313.249 139.481 313.413C139.628 313.576 139.872 313.658 140.212 313.658C140.302 313.658 140.419 313.648 140.565 313.626C140.711 313.605 140.835 313.584 140.94 313.563L141.244 314.94C141.06 315.001 140.863 315.045 140.655 315.072C140.446 315.1 140.241 315.114 140.041 315.114C139.246 315.114 138.63 314.91 138.195 314.503C137.759 314.095 137.542 313.521 137.542 312.779V304.188ZM142.71 315V306.266H144.429V315H142.71ZM143.575 304.933C143.28 304.933 143.026 304.833 142.814 304.633C142.602 304.433 142.495 304.192 142.495 303.912C142.495 303.626 142.602 303.385 142.814 303.187C143.026 302.99 143.28 302.891 143.575 302.891C143.873 302.891 144.129 302.989 144.341 303.187C144.554 303.384 144.66 303.626 144.66 303.912C144.66 304.192 144.554 304.433 144.341 304.633C144.129 304.833 143.873 304.933 143.575 304.933ZM148.46 309.825V315H146.742V306.266H148.38L148.398 308.404H148.221C148.474 307.623 148.843 307.053 149.326 306.694C149.81 306.336 150.395 306.156 151.082 306.156C151.676 306.156 152.196 306.281 152.641 306.53C153.086 306.779 153.433 307.148 153.68 307.636C153.928 308.125 154.052 308.729 154.052 309.45V315H152.334V309.665C152.334 309.036 152.17 308.543 151.842 308.187C151.515 307.831 151.065 307.652 150.494 307.652C150.107 307.652 149.759 307.737 149.452 307.907C149.144 308.077 148.902 308.323 148.725 308.646C148.548 308.969 148.46 309.362 148.46 309.825ZM160.02 318.453C159.347 318.453 158.763 318.368 158.269 318.197C157.774 318.027 157.366 317.797 157.045 317.509C156.724 317.221 156.481 316.901 156.316 316.551L157.748 315.876C157.856 316.04 157.997 316.216 158.171 316.403C158.345 316.59 158.58 316.747 158.875 316.875C159.17 317.004 159.55 317.068 160.017 317.068C160.681 317.068 161.22 316.911 161.635 316.597C162.049 316.284 162.256 315.791 162.256 315.119V313.417H162.107C162.006 313.606 161.862 313.813 161.677 314.039C161.491 314.264 161.233 314.458 160.902 314.621C160.571 314.784 160.139 314.865 159.607 314.865C158.923 314.865 158.306 314.703 157.755 314.38C157.204 314.057 156.768 313.579 156.447 312.945C156.125 312.311 155.964 311.531 155.964 310.602C155.964 309.673 156.124 308.877 156.444 308.214C156.765 307.551 157.201 307.042 157.754 306.688C158.307 306.333 158.932 306.156 159.63 306.156C160.169 306.156 160.606 306.245 160.94 306.424C161.275 306.602 161.537 306.812 161.727 307.053C161.918 307.295 162.064 307.506 162.165 307.688H162.285V306.266H163.966V315.127C163.966 315.889 163.793 316.516 163.446 317.008C163.1 317.5 162.629 317.864 162.033 318.1C161.438 318.335 160.766 318.453 160.02 318.453ZM160.007 313.438C160.495 313.438 160.907 313.324 161.243 313.097C161.579 312.87 161.834 312.542 162.008 312.114C162.182 311.686 162.269 311.174 162.269 310.577C162.269 309.991 162.183 309.476 162.011 309.034C161.84 308.592 161.586 308.246 161.25 307.996C160.914 307.746 160.5 307.621 160.007 307.621C159.503 307.621 159.081 307.752 158.741 308.015C158.401 308.278 158.146 308.631 157.975 309.076C157.804 309.52 157.719 310.02 157.719 310.577C157.719 311.145 157.805 311.644 157.978 312.074C158.151 312.504 158.408 312.839 158.747 313.079C159.087 313.318 159.507 313.438 160.007 313.438ZM175.515 315.156C174.508 315.156 173.609 314.917 172.818 314.44C172.027 313.962 171.405 313.277 170.951 312.385C170.498 311.493 170.271 310.427 170.271 309.188C170.271 307.942 170.498 306.873 170.953 305.98C171.409 305.087 172.032 304.401 172.823 303.922C173.614 303.443 174.512 303.203 175.515 303.203C176.128 303.203 176.704 303.291 177.243 303.467C177.783 303.643 178.265 303.901 178.69 304.239C179.115 304.578 179.468 304.99 179.748 305.475C180.028 305.96 180.217 306.511 180.316 307.129H178.522C178.448 306.755 178.32 306.426 178.137 306.142C177.954 305.857 177.729 305.617 177.462 305.42C177.195 305.223 176.898 305.074 176.57 304.975C176.242 304.875 175.896 304.826 175.532 304.826C174.865 304.826 174.268 304.994 173.74 305.331C173.213 305.668 172.798 306.16 172.495 306.809C172.192 307.457 172.041 308.25 172.041 309.188C172.041 310.126 172.194 310.92 172.5 311.568C172.805 312.216 173.222 312.705 173.748 313.037C174.274 313.368 174.868 313.534 175.529 313.534C175.893 313.534 176.239 313.483 176.566 313.381C176.894 313.28 177.191 313.131 177.459 312.936C177.727 312.742 177.953 312.501 178.137 312.214C178.321 311.928 178.45 311.6 178.525 311.23H180.318C180.231 311.806 180.051 312.333 179.78 312.81C179.509 313.287 179.163 313.702 178.742 314.054C178.321 314.406 177.838 314.678 177.293 314.869C176.748 315.061 176.155 315.156 175.515 315.156ZM184.725 315.192C184.172 315.192 183.672 315.09 183.225 314.886C182.778 314.682 182.424 314.381 182.163 313.985C181.902 313.589 181.772 313.104 181.772 312.53C181.772 312.033 181.868 311.627 182.059 311.31C182.25 310.992 182.508 310.741 182.831 310.554C183.155 310.368 183.516 310.228 183.915 310.134C184.314 310.041 184.72 309.97 185.135 309.921C185.65 309.859 186.069 309.809 186.391 309.769C186.713 309.73 186.951 309.665 187.105 309.574C187.259 309.483 187.337 309.335 187.337 309.13V309.086C187.337 308.76 187.274 308.484 187.148 308.258C187.023 308.032 186.836 307.859 186.587 307.738C186.339 307.617 186.03 307.557 185.66 307.557C185.283 307.557 184.958 307.615 184.686 307.732C184.413 307.849 184.191 307.998 184.021 308.179C183.85 308.36 183.723 308.549 183.639 308.748L182.022 308.332C182.221 307.808 182.505 307.388 182.875 307.07C183.245 306.752 183.669 306.52 184.147 306.375C184.626 306.229 185.122 306.156 185.637 306.156C185.987 306.156 186.361 306.198 186.757 306.282C187.152 306.366 187.524 306.517 187.873 306.735C188.221 306.952 188.505 307.26 188.725 307.657C188.945 308.055 189.055 308.57 189.055 309.201V315H187.392V313.804H187.304C187.191 314.03 187.023 314.249 186.799 314.462C186.575 314.676 186.292 314.851 185.949 314.987C185.607 315.124 185.199 315.192 184.725 315.192ZM185.106 313.816C185.576 313.816 185.978 313.724 186.31 313.54C186.643 313.355 186.898 313.113 187.076 312.813C187.253 312.512 187.342 312.193 187.342 311.855V310.733C187.28 310.794 187.162 310.85 186.987 310.9C186.812 310.951 186.613 310.995 186.391 311.034C186.169 311.073 185.953 311.106 185.743 311.133C185.533 311.16 185.361 311.182 185.227 311.199C184.906 311.24 184.61 311.309 184.341 311.408C184.072 311.507 183.859 311.647 183.7 311.83C183.542 312.012 183.463 312.253 183.463 312.554C183.463 312.83 183.534 313.062 183.676 313.249C183.818 313.436 184.013 313.577 184.259 313.673C184.506 313.768 184.788 313.816 185.106 313.816ZM191.367 315V306.266H193.004L193.047 308.292H192.918C193.041 307.796 193.233 307.389 193.493 307.07C193.753 306.75 194.058 306.512 194.407 306.354C194.756 306.197 195.121 306.118 195.5 306.118C196.133 306.118 196.645 306.315 197.036 306.708C197.427 307.101 197.691 307.649 197.828 308.35H197.612C197.725 307.871 197.922 307.465 198.205 307.133C198.487 306.801 198.827 306.549 199.223 306.376C199.619 306.204 200.046 306.118 200.504 306.118C201.018 306.118 201.484 306.23 201.902 306.453C202.32 306.676 202.651 307.009 202.897 307.451C203.142 307.894 203.265 308.446 203.265 309.109V315H201.547V309.285C201.547 308.7 201.384 308.277 201.059 308.016C200.734 307.755 200.35 307.624 199.907 307.624C199.549 307.624 199.239 307.7 198.977 307.853C198.716 308.005 198.515 308.215 198.374 308.482C198.233 308.749 198.162 309.057 198.162 309.407V315H196.469V309.17C196.469 308.704 196.319 308.33 196.02 308.048C195.721 307.765 195.339 307.624 194.875 307.624C194.558 307.624 194.263 307.698 193.989 307.846C193.715 307.994 193.496 308.213 193.332 308.501C193.167 308.79 193.085 309.147 193.085 309.573V315H191.367ZM205.578 318.266V306.266H207.252V307.688H207.394C207.496 307.506 207.639 307.296 207.824 307.057C208.008 306.817 208.266 306.607 208.598 306.427C208.93 306.246 209.368 306.156 209.911 306.156C210.613 306.156 211.238 306.333 211.786 306.688C212.335 307.042 212.767 307.555 213.085 308.227C213.402 308.898 213.561 309.707 213.561 310.653C213.561 311.595 213.405 312.402 213.092 313.077C212.78 313.751 212.349 314.269 211.801 314.631C211.252 314.993 210.622 315.173 209.912 315.173C209.386 315.173 208.956 315.083 208.62 314.903C208.285 314.723 208.023 314.512 207.833 314.272C207.643 314.032 207.497 313.819 207.394 313.633H207.296V318.266H205.578ZM209.531 313.709C210.032 313.709 210.451 313.573 210.788 313.303C211.125 313.032 211.379 312.665 211.55 312.201C211.721 311.737 211.806 311.217 211.806 310.641C211.806 310.067 211.722 309.553 211.553 309.098C211.385 308.643 211.132 308.283 210.795 308.018C210.457 307.753 210.036 307.621 209.531 307.621C209.039 307.621 208.626 307.747 208.289 307.999C207.953 308.251 207.698 308.602 207.527 309.053C207.355 309.504 207.269 310.033 207.269 310.641C207.269 311.246 207.356 311.779 207.53 312.24C207.704 312.702 207.96 313.062 208.299 313.32C208.637 313.579 209.048 313.709 209.531 313.709ZM218.068 315.192C217.515 315.192 217.015 315.09 216.569 314.886C216.122 314.682 215.768 314.381 215.507 313.985C215.246 313.589 215.116 313.104 215.116 312.53C215.116 312.033 215.211 311.627 215.403 311.31C215.594 310.992 215.852 310.741 216.175 310.554C216.499 310.368 216.86 310.228 217.259 310.134C217.658 310.041 218.064 309.97 218.479 309.921C218.994 309.859 219.413 309.809 219.735 309.769C220.057 309.73 220.295 309.665 220.449 309.574C220.603 309.483 220.68 309.335 220.68 309.13V309.086C220.68 308.76 220.618 308.484 220.492 308.258C220.366 308.032 220.179 307.859 219.931 307.738C219.683 307.617 219.374 307.557 219.004 307.557C218.627 307.557 218.302 307.615 218.029 307.732C217.757 307.849 217.535 307.998 217.364 308.179C217.194 308.36 217.066 308.549 216.983 308.748L215.366 308.332C215.564 307.808 215.849 307.388 216.218 307.07C216.588 306.752 217.013 306.52 217.491 306.375C217.97 306.229 218.466 306.156 218.98 306.156C219.331 306.156 219.704 306.198 220.1 306.282C220.496 306.366 220.868 306.517 221.216 306.735C221.565 306.952 221.849 307.26 222.069 307.657C222.289 308.055 222.399 308.57 222.399 309.201V315H220.736V313.804H220.648C220.535 314.03 220.366 314.249 220.143 314.462C219.919 314.676 219.636 314.851 219.293 314.987C218.951 315.124 218.542 315.192 218.068 315.192ZM218.45 313.816C218.92 313.816 219.321 313.724 219.654 313.54C219.987 313.355 220.242 313.113 220.419 312.813C220.597 312.512 220.686 312.193 220.686 311.855V310.733C220.624 310.794 220.506 310.85 220.331 310.9C220.156 310.951 219.957 310.995 219.735 311.034C219.513 311.073 219.297 311.106 219.087 311.133C218.877 311.16 218.705 311.182 218.571 311.199C218.249 311.24 217.954 311.309 217.685 311.408C217.416 311.507 217.203 311.647 217.044 311.83C216.886 312.012 216.807 312.253 216.807 312.554C216.807 312.83 216.878 313.062 217.02 313.249C217.162 313.436 217.357 313.577 217.603 313.673C217.849 313.768 218.132 313.816 218.45 313.816ZM224.71 315V306.266H226.429V315H224.71ZM225.575 304.933C225.28 304.933 225.026 304.833 224.814 304.633C224.602 304.433 224.495 304.192 224.495 303.912C224.495 303.626 224.602 303.385 224.814 303.187C225.026 302.99 225.28 302.891 225.575 302.891C225.873 302.891 226.129 302.989 226.341 303.187C226.554 303.384 226.66 303.626 226.66 303.912C226.66 304.192 226.554 304.433 226.341 304.633C226.129 304.833 225.873 304.933 225.575 304.933ZM232.395 318.453C231.722 318.453 231.138 318.368 230.644 318.197C230.149 318.027 229.741 317.797 229.42 317.509C229.099 317.221 228.856 316.901 228.691 316.551L230.123 315.876C230.231 316.04 230.372 316.216 230.546 316.403C230.72 316.59 230.955 316.747 231.25 316.875C231.545 317.004 231.925 317.068 232.392 317.068C233.056 317.068 233.595 316.911 234.01 316.597C234.424 316.284 234.631 315.791 234.631 315.119V313.417H234.482C234.381 313.606 234.237 313.813 234.052 314.039C233.866 314.264 233.608 314.458 233.277 314.621C232.946 314.784 232.514 314.865 231.982 314.865C231.298 314.865 230.681 314.703 230.13 314.38C229.579 314.057 229.143 313.579 228.822 312.945C228.5 312.311 228.339 311.531 228.339 310.602C228.339 309.673 228.499 308.877 228.819 308.214C229.14 307.551 229.576 307.042 230.129 306.688C230.682 306.333 231.307 306.156 232.005 306.156C232.544 306.156 232.981 306.245 233.315 306.424C233.65 306.602 233.912 306.812 234.102 307.053C234.293 307.295 234.439 307.506 234.54 307.688H234.66V306.266H236.341V315.127C236.341 315.889 236.168 316.516 235.821 317.008C235.475 317.5 235.004 317.864 234.408 318.1C233.813 318.335 233.141 318.453 232.395 318.453ZM232.382 313.438C232.87 313.438 233.282 313.324 233.618 313.097C233.954 312.87 234.209 312.542 234.383 312.114C234.557 311.686 234.644 311.174 234.644 310.577C234.644 309.991 234.558 309.476 234.386 309.034C234.215 308.592 233.961 308.246 233.625 307.996C233.289 307.746 232.875 307.621 232.382 307.621C231.878 307.621 231.456 307.752 231.116 308.015C230.776 308.278 230.521 308.631 230.35 309.076C230.179 309.52 230.094 310.02 230.094 310.577C230.094 311.145 230.18 311.644 230.353 312.074C230.526 312.504 230.783 312.839 231.122 313.079C231.462 313.318 231.882 313.438 232.382 313.438ZM240.374 309.825V315H238.656V306.266H240.294L240.312 308.404H240.135C240.388 307.623 240.757 307.053 241.24 306.694C241.724 306.336 242.309 306.156 242.996 306.156C243.59 306.156 244.11 306.281 244.555 306.53C245 306.779 245.347 307.148 245.594 307.636C245.842 308.125 245.966 308.729 245.966 309.45V315H244.248V309.665C244.248 309.036 244.084 308.543 243.756 308.187C243.429 307.831 242.979 307.652 242.408 307.652C242.021 307.652 241.673 307.737 241.366 307.907C241.058 308.077 240.816 308.323 240.639 308.646C240.462 308.969 240.374 309.362 240.374 309.825Z" fill="#334155"/>
<path d="M603.706 310.294C604.097 310.684 604.097 311.319 603.706 311.709L597.706 317.709C597.316 318.1 596.681 318.1 596.291 317.709C595.9 317.319 595.9 316.684 596.291 316.294L601.584 311L596.294 305.706C595.903 305.316 595.903 304.681 596.294 304.291C596.684 303.9 597.319 303.9 597.709 304.291L603.709 310.291L603.706 310.294" fill="#94A3B8"/>
</g>
<defs>
<filter id="filter0_d_39_357" x="0" y="0" width="692" height="436" filterUnits="userSpaceOnUse" color-interpolation-filters="sRGB">
<feFlood flood-opacity="0" result="BackgroundImageFix"/>
<feColorMatrix in="SourceAlpha" type="matrix" values="0 0 0 0 0 0 0 0 0 0 0 0 0 0 0 0 0 0 127 0" result="hardAlpha"/>
<feMorphology radius="12" operator="erode" in="SourceAlpha" result="effect1_dropShadow_39_357"/>
<feOffset dy="25"/>
<feGaussianBlur stdDeviation="25"/>
<feComposite in2="hardAlpha" operator="out"/>
<feColorMatrix type="matrix" values="0 0 0 0 0 0 0 0 0 0 0 0 0 0 0 0 0 0 0.25 0"/>
<feBlend mode="normal" in2="BackgroundImageFix" result="effect1_dropShadow_39_357"/>
<feBlend mode="normal" in="SourceGraphic" in2="effect1_dropShadow_39_357" result="shape"/>
</filter>
<linearGradient id="paint0_linear_39_357" x1="71" y1="137" x2="621" y2="137" gradientUnits="userSpaceOnUse">
<stop stop-color="#EEF2FF"/>
<stop offset="1" stop-color="#FAF5FF"/>
</linearGradient>
<linearGradient id="paint1_linear_39_357" x1="88" y1="139" x2="423.39" y2="139" gradientUnits="userSpaceOnUse">
<stop stop-color="#6366F1"/>
<stop offset="1" stop-color="#A855F7"/>
</linearGradient>
</defs>
</svg>
