<svg width="40" height="40" viewBox="0 0 40 40" fill="none" xmlns="http://www.w3.org/2000/svg">
<rect width="40" height="40" rx="12" fill="url(#paint0_linear_1_353)"/>
<path d="M16.5055 24.5316L15.4191 23.4453C15.1203 23.1465 15.0148 22.7141 15.1484 22.3133C15.2539 22.0004 15.3945 21.5926 15.5633 21.125H11.8438C11.5414 21.125 11.2602 20.9633 11.109 20.6996C10.9578 20.4359 10.9613 20.1125 11.116 19.8523L12.9617 16.741C13.4188 15.9711 14.2449 15.5 15.1379 15.5H18.0313C18.1156 15.3594 18.2 15.2293 18.2844 15.1027C21.1637 10.8559 25.4527 10.7152 28.0121 11.1863C28.4199 11.2602 28.7363 11.5801 28.8137 11.9879C29.2848 14.5508 29.1406 18.8363 24.8973 21.7156C24.7742 21.8 24.6406 21.8844 24.5 21.9688V24.8621C24.5 25.7551 24.0289 26.5848 23.259 27.0383L20.1477 28.884C19.8875 29.0387 19.5641 29.0422 19.3004 28.891C19.0367 28.7398 18.875 28.4621 18.875 28.1562V24.3875C18.3793 24.5598 17.9469 24.7004 17.6199 24.8059C17.2262 24.9324 16.7973 24.8234 16.502 24.5316H16.5055ZM24.5 16.9062C25.2761 16.9062 25.9063 16.2761 25.9063 15.5C25.9063 14.7239 25.2761 14.0937 24.5 14.0937C23.7239 14.0937 23.0938 14.7239 23.0938 15.5C23.0938 16.2761 23.7239 16.9062 24.5 16.9062Z" fill="white"/>
<defs>
<linearGradient id="paint0_linear_1_353" x1="0" y1="0" x2="40" y2="40" gradientUnits="userSpaceOnUse">
<stop stop-color="#6366F1"/>
<stop offset="1" stop-color="#9333EA"/>
</linearGradient>
</defs>
</svg>
